<mxfile host="app.diagrams.net" modified="2021-02-06T09:32:31.303Z" agent="5.0 (Linux; Android 7.0; SAMSUNG SM-T813) AppleWebKit/537.36 (KHTML, like Gecko) SamsungBrowser/13.2 Chrome/83.0.4103.106 Safari/537.36" etag="c3c1vfWPMSO7SErUZLOv" version="14.2.9" type="github">
  <diagram id="prtHgNgQTEPvFCAcTncT" name="Page-1">
    <mxGraphModel dx="464" dy="453" grid="1" gridSize="10" guides="1" tooltips="1" connect="1" arrows="1" fold="1" page="1" pageScale="1" pageWidth="827" pageHeight="1169" background="#ffffff" math="0" shadow="0">
      <root>
        <mxCell id="0" />
        <mxCell id="1" parent="0" />
        <mxCell id="NEZ7RZ7i4HVP9aI7dhXX-5" style="edgeStyle=orthogonalEdgeStyle;rounded=0;orthogonalLoop=1;jettySize=auto;html=1;noEdgeStyle=1;orthogonal=1;" edge="1" parent="1" source="NEZ7RZ7i4HVP9aI7dhXX-1" target="NEZ7RZ7i4HVP9aI7dhXX-3">
          <mxGeometry relative="1" as="geometry" />
        </mxCell>
        <mxCell id="NEZ7RZ7i4HVP9aI7dhXX-1" value="Git root &lt;br&gt;《folder》" style="rounded=1;whiteSpace=wrap;html=1;fillColor=#fff2cc;strokeColor=#d6b656;" vertex="1" parent="1">
          <mxGeometry x="130" width="120" height="60" as="geometry" />
        </mxCell>
        <mxCell id="NEZ7RZ7i4HVP9aI7dhXX-7" value="" style="edgeStyle=orthogonalEdgeStyle;rounded=0;orthogonalLoop=1;jettySize=auto;html=1;" edge="1" parent="1" source="NEZ7RZ7i4HVP9aI7dhXX-3" target="NEZ7RZ7i4HVP9aI7dhXX-4">
          <mxGeometry relative="1" as="geometry" />
        </mxCell>
        <mxCell id="NEZ7RZ7i4HVP9aI7dhXX-9" style="edgeStyle=orthogonalEdgeStyle;rounded=0;orthogonalLoop=1;jettySize=auto;html=1;entryX=0.5;entryY=0;entryDx=0;entryDy=0;" edge="1" parent="1" source="NEZ7RZ7i4HVP9aI7dhXX-3" target="NEZ7RZ7i4HVP9aI7dhXX-8">
          <mxGeometry relative="1" as="geometry" />
        </mxCell>
        <mxCell id="NEZ7RZ7i4HVP9aI7dhXX-18" style="edgeStyle=orthogonalEdgeStyle;rounded=0;orthogonalLoop=1;jettySize=auto;html=1;entryX=0.5;entryY=0;entryDx=0;entryDy=0;exitX=0.5;exitY=1;exitDx=0;exitDy=0;" edge="1" parent="1" source="NEZ7RZ7i4HVP9aI7dhXX-3" target="NEZ7RZ7i4HVP9aI7dhXX-16">
          <mxGeometry relative="1" as="geometry" />
        </mxCell>
        <mxCell id="NEZ7RZ7i4HVP9aI7dhXX-24" style="edgeStyle=orthogonalEdgeStyle;rounded=0;orthogonalLoop=1;jettySize=auto;html=1;entryX=0.5;entryY=0.026;entryDx=0;entryDy=0;entryPerimeter=0;exitX=0.5;exitY=1;exitDx=0;exitDy=0;" edge="1" parent="1" source="NEZ7RZ7i4HVP9aI7dhXX-3" target="NEZ7RZ7i4HVP9aI7dhXX-21">
          <mxGeometry relative="1" as="geometry">
            <mxPoint x="200" y="180" as="sourcePoint" />
            <mxPoint x="710" y="210" as="targetPoint" />
          </mxGeometry>
        </mxCell>
        <mxCell id="NEZ7RZ7i4HVP9aI7dhXX-3" value="Projects&amp;nbsp;&lt;br&gt;《folder》" style="rounded=1;whiteSpace=wrap;html=1;fillColor=#fff2cc;strokeColor=#d6b656;" vertex="1" parent="1">
          <mxGeometry x="130" y="110" width="120" height="60" as="geometry" />
        </mxCell>
        <mxCell id="NEZ7RZ7i4HVP9aI7dhXX-11" style="edgeStyle=orthogonalEdgeStyle;rounded=0;orthogonalLoop=1;jettySize=auto;html=1;" edge="1" parent="1" source="NEZ7RZ7i4HVP9aI7dhXX-4" target="NEZ7RZ7i4HVP9aI7dhXX-10">
          <mxGeometry relative="1" as="geometry" />
        </mxCell>
        <mxCell id="NEZ7RZ7i4HVP9aI7dhXX-4" value="NAMEOFYOURPROJECT.[Functions|Controllers]&amp;nbsp;&lt;br&gt;《folder》" style="rounded=1;whiteSpace=wrap;html=1;fillColor=#fff2cc;strokeColor=#d6b656;" vertex="1" parent="1">
          <mxGeometry x="10" y="220" width="140" height="90" as="geometry" />
        </mxCell>
        <mxCell id="NEZ7RZ7i4HVP9aI7dhXX-15" style="edgeStyle=orthogonalEdgeStyle;rounded=0;orthogonalLoop=1;jettySize=auto;html=1;entryX=0.5;entryY=0;entryDx=0;entryDy=0;" edge="1" parent="1" source="NEZ7RZ7i4HVP9aI7dhXX-8" target="NEZ7RZ7i4HVP9aI7dhXX-12">
          <mxGeometry relative="1" as="geometry" />
        </mxCell>
        <mxCell id="NEZ7RZ7i4HVP9aI7dhXX-8" value="NAMEOFYOURPROJECT.[Functions|Controllers].Tests&amp;nbsp;&lt;br&gt;《folder》" style="rounded=1;whiteSpace=wrap;html=1;fillColor=#fff2cc;strokeColor=#d6b656;treeMoving=0;deletable=0;treeFolding=0;comic=0;autosize=0;" vertex="1" parent="1">
          <mxGeometry x="190" y="220" width="180" height="95" as="geometry" />
        </mxCell>
        <mxCell id="NEZ7RZ7i4HVP9aI7dhXX-10" value="NAMEOFYOURPROJECT.[Functions|Controllers]&amp;nbsp;&lt;br&gt;.csproj" style="rounded=1;whiteSpace=wrap;html=1;fillColor=#cdeb8b;strokeColor=#36393d;arcSize=50;" vertex="1" parent="1">
          <mxGeometry x="10" y="360" width="140" height="140" as="geometry" />
        </mxCell>
        <mxCell id="NEZ7RZ7i4HVP9aI7dhXX-12" value="NAMEOFYOURPROJECT.[Functions|Controllers]&lt;br&gt;.Tests.csproj" style="rounded=1;whiteSpace=wrap;html=1;fillColor=#cdeb8b;strokeColor=#36393d;treeMoving=0;deletable=0;treeFolding=0;comic=0;autosize=0;arcSize=50;" vertex="1" parent="1">
          <mxGeometry x="207.5" y="365" width="145" height="140" as="geometry" />
        </mxCell>
        <mxCell id="NEZ7RZ7i4HVP9aI7dhXX-20" style="edgeStyle=orthogonalEdgeStyle;rounded=0;orthogonalLoop=1;jettySize=auto;html=1;entryX=0.5;entryY=0;entryDx=0;entryDy=0;" edge="1" parent="1" source="NEZ7RZ7i4HVP9aI7dhXX-16" target="NEZ7RZ7i4HVP9aI7dhXX-17">
          <mxGeometry relative="1" as="geometry" />
        </mxCell>
        <mxCell id="NEZ7RZ7i4HVP9aI7dhXX-16" value="NAMEOFYOURPROJECT.Domain&lt;br&gt;《folder》" style="rounded=1;whiteSpace=wrap;html=1;fillColor=#fff2cc;strokeColor=#d6b656;treeMoving=0;deletable=0;treeFolding=0;comic=0;autosize=0;" vertex="1" parent="1">
          <mxGeometry x="413.5" y="220" width="180" height="95" as="geometry" />
        </mxCell>
        <mxCell id="NEZ7RZ7i4HVP9aI7dhXX-17" value="NAMEOFYOURPROJECT&lt;br&gt;.Domain.csproj" style="rounded=1;whiteSpace=wrap;html=1;fillColor=#cdeb8b;strokeColor=#36393d;treeMoving=0;deletable=0;treeFolding=0;comic=0;autosize=0;arcSize=50;" vertex="1" parent="1">
          <mxGeometry x="431" y="365" width="145" height="140" as="geometry" />
        </mxCell>
        <mxCell id="NEZ7RZ7i4HVP9aI7dhXX-23" style="edgeStyle=orthogonalEdgeStyle;rounded=0;orthogonalLoop=1;jettySize=auto;html=1;entryX=0.5;entryY=0;entryDx=0;entryDy=0;" edge="1" parent="1" source="NEZ7RZ7i4HVP9aI7dhXX-21" target="NEZ7RZ7i4HVP9aI7dhXX-22">
          <mxGeometry relative="1" as="geometry" />
        </mxCell>
        <mxCell id="NEZ7RZ7i4HVP9aI7dhXX-21" value="NAMEOFYOURPROJECT&lt;br&gt;.DataAcces&lt;br&gt;.THETHINGYOUAREACCESSING&lt;br&gt;《folder》" style="rounded=1;whiteSpace=wrap;html=1;fillColor=#fff2cc;strokeColor=#d6b656;treeMoving=0;deletable=0;treeFolding=0;comic=0;autosize=0;" vertex="1" parent="1">
          <mxGeometry x="620" y="217.5" width="180" height="95" as="geometry" />
        </mxCell>
        <mxCell id="NEZ7RZ7i4HVP9aI7dhXX-22" value="NAMEOFYOURPROJECT&lt;br&gt;.DataAccess&lt;br&gt;.THETHINGYOUAREACCESSING&lt;br&gt;.csproj" style="rounded=1;whiteSpace=wrap;html=1;fillColor=#cdeb8b;strokeColor=#36393d;treeMoving=0;deletable=0;treeFolding=0;comic=0;autosize=0;arcSize=50;" vertex="1" parent="1">
          <mxGeometry x="613.75" y="360" width="192.5" height="170" as="geometry" />
        </mxCell>
      </root>
    </mxGraphModel>
  </diagram>
</mxfile>
